<svg xmlns="http://www.w3.org/2000/svg" width="510" height="343" viewBox="0 0 510 343" fill="none">
  <path d="m403.765 131.089-76.35-70.038-10.74 11.707 63.625 58.331H129.516l63.625-58.382L182.401 61l-76.35 70.089H106v46.167c0 20.869 20.105 37.869 44.792 37.869h47.083c24.686 0 44.792-17 44.792-37.869v-30.337h24.431v30.337c0 20.869 20.106 37.869 44.793 37.869h47.082c24.687 0 44.792-17 44.792-37.869z" fill="#FC60A8"/>
  <path d="M131.806 249.125c2.036 0 3.716.713 5.141 2.138s2.138 3.156 2.138 5.141v25.246h-25.806c-2.036 0-3.716-.712-5.141-2.137S106 276.357 106 274.372v-12.013h27.028v-5.955c0-.356-.102-.611-.356-.865a1.12 1.12 0 0 0-.866-.357H106v-6.057zm1.222 26.468v-7.177h-20.971v5.956c0 .356.102.61.356.865.255.254.509.356.866.356zm58.382-26.468h6.465l-12.216 32.525h-4.938l-10.943-24.177-10.333 24.177-.102-.051.051.051h-4.886l-12.776-32.525h6.413l8.806 21.582 9.366-21.582h6.922l9.925 21.582zm34.205 0c2.036 0 3.716.713 5.141 2.138s2.138 3.156 2.138 5.141v12.012h-27.028v5.956c0 .356.102.61.356.865.255.254.509.356.865.356h25.807v6.057h-25.807c-2.036 0-3.715-.712-5.14-2.137-1.426-1.426-2.138-3.156-2.138-5.141v-17.968c0-2.036.712-3.716 2.138-5.141s3.155-2.138 5.14-2.138zm-19.749 13.234h20.971v-5.955c0-.356-.102-.611-.357-.865a1.11 1.11 0 0 0-.865-.357h-18.528c-.356 0-.61.102-.865.357a1.12 1.12 0 0 0-.356.865zm65.661-5.904v1.221h-6.057v-1.221c0-.356-.102-.611-.357-.865a1.11 1.11 0 0 0-.865-.357h-18.527c-.357 0-.611.102-.866.357a1.12 1.12 0 0 0-.356.865v4.734c0 .356.102.61.356.865.255.254.509.356.866.356h18.527c2.036 0 3.716.713 5.141 2.138s2.138 3.156 2.138 5.141v4.734c0 2.036-.713 3.715-2.138 5.14-1.425 1.426-3.156 2.138-5.141 2.138h-18.527c-2.036 0-3.716-.712-5.141-2.138-1.426-1.425-2.138-3.155-2.138-5.14v-1.222h6.057v1.222c0 .356.102.61.356.865.255.254.509.356.866.356h18.527c.356 0 .611-.102.865-.356.255-.255.357-.509.357-.865v-4.734c0-.356-.102-.611-.357-.865a1.11 1.11 0 0 0-.865-.357h-18.527c-2.036 0-3.716-.712-5.141-2.138-1.426-1.425-2.138-3.155-2.138-5.14v-4.734c0-2.036.712-3.716 2.138-5.141s3.155-2.138 5.141-2.138h18.527c2.036 0 3.716.713 5.141 2.138 1.425 1.374 2.138 3.105 2.138 5.141m12.827-7.33h18.527c2.036 0 3.716.713 5.141 2.138s2.138 3.156 2.138 5.141v17.968c0 2.036-.713 3.715-2.138 5.141-1.425 1.425-3.156 2.137-5.141 2.137h-18.527c-2.036 0-3.716-.712-5.141-2.137-1.426-1.426-2.138-3.156-2.138-5.141v-17.968c0-2.036.712-3.716 2.138-5.141s3.155-2.138 5.141-2.138m18.527 6.057h-18.527c-.357 0-.611.102-.866.357a1.12 1.12 0 0 0-.356.865v17.968c0 .356.102.61.356.865.255.254.509.356.866.356h18.527c.356 0 .611-.102.866-.356.254-.255.356-.509.356-.865v-17.968c0-.356-.102-.611-.356-.865-.255-.204-.51-.357-.866-.357m54.718-6.057c2.036 0 3.715.713 5.141 2.138 1.425 1.425 2.137 3.156 2.137 5.141v25.246h-6.006v-25.246c0-.356-.102-.611-.356-.865-.255-.255-.56-.357-.916-.357h-12.827c-.356 0-.611.102-.865.357a1.11 1.11 0 0 0-.357.865v25.246h-6.057v-25.246c0-.356-.102-.611-.356-.865a1.12 1.12 0 0 0-.865-.357h-12.878c-.356 0-.611.102-.865.357a1.11 1.11 0 0 0-.357.865v25.246h-6.057v-32.525zm38.938 0c2.036 0 3.716.713 5.141 2.138s2.138 3.156 2.138 5.141v12.012h-27.028v5.956c0 .356.102.61.356.865.255.254.509.356.866.356h25.806v6.057H378.01c-2.036 0-3.716-.712-5.141-2.137-1.426-1.426-2.138-3.156-2.138-5.141v-17.968c0-2.036.712-3.716 2.138-5.141s3.155-2.138 5.141-2.138zm-19.749 13.234h20.971v-5.955c0-.356-.102-.611-.356-.865a1.12 1.12 0 0 0-.866-.357H378.01c-.357 0-.611.102-.866.357a1.12 1.12 0 0 0-.356.865z" fill="#494368"/>
  <g clip-path="url(#a)" stroke="#000" stroke-width="4.375" stroke-linecap="round" stroke-linejoin="round">
    <path d="m360.452 173.397-21.91 21.04m17.528-44.184-41.629 39.976"/>
  </g>
  <g clip-path="url(#b)" stroke="#000" stroke-width="4.375" stroke-linecap="round" stroke-linejoin="round">
    <path d="m149.364 173.397 21.91 21.04m-17.528-44.184 41.629 39.976"/>
  </g>
  <defs>
    <clipPath id="a">
      <path fill="#fff" d="M303.486 139.733h70.112v67.328h-70.112z"/>
    </clipPath>
    <clipPath id="b">
      <path fill="#fff" d="M206.33 139.733h-70.112v67.328h70.112z"/>
    </clipPath>
  </defs>
</svg>
