<svg width="510" height="343" viewBox="0 0 510 343" fill="none" xmlns="http://www.w3.org/2000/svg">
<path d="M403.765 131.089L327.415 61.0509L316.675 72.7579L380.3 131.089H129.516L193.141 72.707L182.401 61L106.051 131.089H106V177.256C106 198.125 126.105 215.125 150.792 215.125H197.875C222.561 215.125 242.667 198.125 242.667 177.256V146.919H267.098V177.256C267.098 198.125 287.204 215.125 311.891 215.125H358.973C383.66 215.125 403.765 198.125 403.765 177.256V131.089Z" fill="#FC60A8"/>
<path d="M131.806 249.125C133.842 249.125 135.522 249.838 136.947 251.263C138.372 252.688 139.085 254.419 139.085 256.404V281.65H113.279C111.243 281.65 109.563 280.938 108.138 279.513C106.713 278.087 106 276.357 106 274.372V262.359H133.028V256.404C133.028 256.048 132.926 255.793 132.672 255.539C132.417 255.284 132.163 255.182 131.806 255.182H106V249.125H131.806ZM133.028 275.593V268.416H112.057V274.372C112.057 274.728 112.159 274.982 112.413 275.237C112.668 275.491 112.922 275.593 113.279 275.593H133.028ZM191.41 249.125H197.875L185.659 281.65H180.721L169.778 257.473L159.445 281.65L159.343 281.599L159.394 281.65H154.508L141.732 249.125H148.145L156.951 270.707L166.317 249.125H173.239L183.164 270.707L191.41 249.125ZM225.615 249.125C227.651 249.125 229.331 249.838 230.756 251.263C232.181 252.688 232.894 254.419 232.894 256.404V268.416H205.866V274.372C205.866 274.728 205.968 274.982 206.222 275.237C206.477 275.491 206.731 275.593 207.087 275.593H232.894V281.65H207.087C205.051 281.65 203.372 280.938 201.947 279.513C200.521 278.087 199.809 276.357 199.809 274.372V256.404C199.809 254.368 200.521 252.688 201.947 251.263C203.372 249.838 205.102 249.125 207.087 249.125H225.615ZM205.866 262.359H226.837V256.404C226.837 256.048 226.735 255.793 226.48 255.539C226.226 255.284 225.971 255.182 225.615 255.182H207.087C206.731 255.182 206.477 255.284 206.222 255.539C205.968 255.793 205.866 256.048 205.866 256.404V262.359ZM271.527 256.455V257.676H265.47V256.455C265.47 256.099 265.368 255.844 265.113 255.59C264.859 255.335 264.604 255.233 264.248 255.233H245.721C245.364 255.233 245.11 255.335 244.855 255.59C244.601 255.844 244.499 256.099 244.499 256.455V261.189C244.499 261.545 244.601 261.799 244.855 262.054C245.11 262.308 245.364 262.41 245.721 262.41H264.248C266.284 262.41 267.964 263.123 269.389 264.548C270.814 265.973 271.527 267.704 271.527 269.689V274.423C271.527 276.459 270.814 278.138 269.389 279.563C267.964 280.989 266.233 281.701 264.248 281.701H245.721C243.685 281.701 242.005 280.989 240.58 279.563C239.154 278.138 238.442 276.408 238.442 274.423V273.201H244.499V274.423C244.499 274.779 244.601 275.033 244.855 275.288C245.11 275.542 245.364 275.644 245.721 275.644H264.248C264.604 275.644 264.859 275.542 265.113 275.288C265.368 275.033 265.47 274.779 265.47 274.423V269.689C265.47 269.333 265.368 269.078 265.113 268.824C264.859 268.569 264.604 268.467 264.248 268.467H245.721C243.685 268.467 242.005 267.755 240.58 266.329C239.154 264.904 238.442 263.174 238.442 261.189V256.455C238.442 254.419 239.154 252.739 240.58 251.314C242.005 249.889 243.735 249.176 245.721 249.176H264.248C266.284 249.176 267.964 249.889 269.389 251.314C270.814 252.688 271.527 254.419 271.527 256.455ZM284.354 249.125H302.881C304.917 249.125 306.597 249.838 308.022 251.263C309.447 252.688 310.16 254.419 310.16 256.404V274.372C310.16 276.408 309.447 278.087 308.022 279.513C306.597 280.938 304.866 281.65 302.881 281.65H284.354C282.318 281.65 280.638 280.938 279.213 279.513C277.787 278.087 277.075 276.357 277.075 274.372V256.404C277.075 254.368 277.787 252.688 279.213 251.263C280.638 249.838 282.368 249.125 284.354 249.125ZM302.881 255.182H284.354C283.997 255.182 283.743 255.284 283.488 255.539C283.234 255.793 283.132 256.048 283.132 256.404V274.372C283.132 274.728 283.234 274.982 283.488 275.237C283.743 275.491 283.997 275.593 284.354 275.593H302.881C303.237 275.593 303.492 275.491 303.747 275.237C304.001 274.982 304.103 274.728 304.103 274.372V256.404C304.103 256.048 304.001 255.793 303.747 255.539C303.492 255.335 303.237 255.182 302.881 255.182ZM357.599 249.125C359.635 249.125 361.314 249.838 362.74 251.263C364.165 252.688 364.877 254.419 364.877 256.404V281.65H358.871V256.404C358.871 256.048 358.769 255.793 358.515 255.539C358.26 255.284 357.955 255.182 357.599 255.182H344.772C344.416 255.182 344.161 255.284 343.907 255.539C343.652 255.793 343.55 256.048 343.55 256.404V281.65H337.493V256.404C337.493 256.048 337.391 255.793 337.137 255.539C336.882 255.284 336.628 255.182 336.272 255.182H323.394C323.038 255.182 322.783 255.284 322.529 255.539C322.274 255.793 322.172 256.048 322.172 256.404V281.65H316.115V249.125H357.599ZM396.537 249.125C398.573 249.125 400.253 249.838 401.678 251.263C403.103 252.688 403.816 254.419 403.816 256.404V268.416H376.788V274.372C376.788 274.728 376.89 274.982 377.144 275.237C377.399 275.491 377.653 275.593 378.01 275.593H403.816V281.65H378.01C375.974 281.65 374.294 280.938 372.869 279.513C371.443 278.087 370.731 276.357 370.731 274.372V256.404C370.731 254.368 371.443 252.688 372.869 251.263C374.294 249.838 376.024 249.125 378.01 249.125H396.537ZM376.788 262.359H397.759V256.404C397.759 256.048 397.657 255.793 397.403 255.539C397.148 255.284 396.893 255.182 396.537 255.182H378.01C377.653 255.182 377.399 255.284 377.144 255.539C376.89 255.793 376.788 256.048 376.788 256.404V262.359Z" fill="#494368"/>
<g clip-path="url(#clip0_2_23)">
<path d="M360.452 173.397L338.542 194.437" stroke="black" stroke-width="4.375" stroke-linecap="round" stroke-linejoin="round"/>
<path d="M356.07 150.253L314.441 190.229" stroke="black" stroke-width="4.375" stroke-linecap="round" stroke-linejoin="round"/>
</g>
<g clip-path="url(#clip1_2_23)">
<path d="M149.364 173.397L171.274 194.437" stroke="black" stroke-width="4.375" stroke-linecap="round" stroke-linejoin="round"/>
<path d="M153.746 150.253L195.375 190.229" stroke="black" stroke-width="4.375" stroke-linecap="round" stroke-linejoin="round"/>
</g>
<defs>
<clipPath id="clip0_2_23">
<rect width="70.1122" height="67.3283" fill="white" transform="translate(303.486 139.733)"/>
</clipPath>
<clipPath id="clip1_2_23">
<rect width="70.1122" height="67.3283" fill="white" transform="matrix(-1 0 0 1 206.33 139.733)"/>
</clipPath>
</defs>
</svg>
