<svg width="300" height="300" viewBox="0 0 300 300" fill="none" xmlns="http://www.w3.org/2000/svg">
<rect width="300" height="300" fill="black"/>
<path d="M171.802 35.7217L163.044 30.7004V72.3321L171.802 77.416V35.7217Z" fill="white"/>
<path d="M189.444 45.9837L180.676 40.9104V82.5955L189.444 87.6272V45.9837Z" fill="white"/>
<path d="M206.921 56.1935L198.162 51.1724V92.8041L206.921 97.8359V56.1935Z" fill="white"/>
<path d="M57.0532 96.3854L65.8116 101.417V71.6443L57.0532 76.6653V96.3854Z" fill="white"/>
<path d="M48.2887 91.3068V81.8489L40 86.5986L48.2887 91.3068Z" fill="white"/>
<path d="M259.687 86.7136L250.97 81.6821V91.7871L242.201 96.8082V76.6608L233.495 71.6395V101.727L224.726 106.758V66.4001L215.801 61.2121V102.906L223.661 107.499V191.845L223.233 192.106L215.801 187.837V196.438L206.928 201.46V182.492L198.169 177.303V206.542L189.452 211.72V172.114L180.683 166.937V216.753L171.81 221.774V161.749L163.052 156.561V226.794L154.283 232.035V151.381L150.003 148.542L150.17 64.7882L154.283 67.3041V25.6724L149.69 23L145.994 25.0774V66.8762L137.131 71.8973V30.2657L128.363 35.2869V76.9276L119.594 82.0008V40.4738L110.887 45.4951V87.0222L101.962 92.0539V50.578L93.2452 55.7558V97.1246L84.4763 102.313V60.7749L74.6948 66.5476V106.425L76.0312 107.176L76.3547 192.097L84.4763 196.857V187.399L93.2452 182.211V202.045L101.962 207.118V177.022L110.887 171.677V212.14L119.594 217.328V166.499L128.363 161.311V222.349L137.131 227.432V156.07L145.994 150.892V232.61L150.003 234.97V234.803V276.757L259.843 213.319L260 86.7018L259.687 86.7136Z" fill="white"/>
</svg>
